<svg xmlns="http://www.w3.org/2000/svg" width="35.154" height="35.153" viewBox="0 0 35.154 35.153">
  <g id="Grupo_14136" data-name="Grupo 14136" transform="translate(-1342.615 -33.423)">
    <path id="Trazado_9345" data-name="Trazado 9345" d="M579.3,34.571a16.127,16.127,0,1,1-16.1-16.153,16.127,16.127,0,0,1,16.1,16.153" transform="translate(797.018 16.455)" fill="#efe4d6"/>
    <path id="Trazado_9346" data-name="Trazado 9346" d="M546.2,35.154a17.577,17.577,0,1,1,17.577-17.577A17.6,17.6,0,0,1,546.2,35.154M546.2.57a17.008,17.008,0,1,0,17.008,17.008A17.027,17.027,0,0,0,546.2.57" transform="translate(813.988 33.422)" fill="#796b69"/>
    <path id="Trazado_9347" data-name="Trazado 9347" d="M707.4,119.887v8.548a.223.223,0,0,0,.223.223H710.8a.223.223,0,0,0,.223-.223v-8.687h2.3a.223.223,0,0,0,.222-.2l.221-2.617a.223.223,0,0,0-.222-.241H711.02v-1.857a.788.788,0,0,1,.788-.788h1.774a.223.223,0,0,0,.223-.223V111.2a.223.223,0,0,0-.223-.223h-3a3.184,3.184,0,0,0-3.184,3.184v2.523h-1.587a.223.223,0,0,0-.223.223v2.617a.223.223,0,0,0,.223.223H707.4Z" transform="translate(650.956 -68.817)" fill="#e9c49c" fill-rule="evenodd"/>
    <path id="Trazado_9348" data-name="Trazado 9348" d="M708.3,126.376h-3.174a.436.436,0,0,1-.436-.436v-8.474h-1.374a.436.436,0,0,1-.436-.436v-2.617a.436.436,0,0,1,.436-.436h1.374v-2.31a3.4,3.4,0,0,1,3.4-3.4h3a.436.436,0,0,1,.436.436v2.617a.436.436,0,0,1-.436.436h-1.774a.576.576,0,0,0-.575.575v1.644h2.309a.436.436,0,0,1,.434.473l-.221,2.617a.438.438,0,0,1-.434.4h-2.088v8.474a.436.436,0,0,1-.436.436M703.319,114.4l-.009,2.627,1.6.009a.213.213,0,0,1,.213.213v8.687l3.184.009.009-8.7a.213.213,0,0,1,.213-.213h2.3l.231-2.626-2.532-.01a.213.213,0,0,1-.213-.213v-1.857a1,1,0,0,1,1-1h1.774l.009-2.627-3.006-.009a2.975,2.975,0,0,0-2.971,2.971v2.523a.213.213,0,0,1-.213.213Z" transform="translate(653.451 -66.322)" fill="#796b69"/>
  </g>
</svg>
