<?xml version="1.0" encoding="utf-8"?>
<!-- Generator: Adobe Illustrator 27.5.0, SVG Export Plug-In . SVG Version: 6.00 Build 0)  -->
<svg version="1.1" id="Capa_1" xmlns="http://www.w3.org/2000/svg" xmlns:xlink="http://www.w3.org/1999/xlink" x="0px" y="0px"
	 viewBox="0 0 444 161.7" style="enable-background:new 0 0 444 161.7;" xml:space="preserve">
<style type="text/css">
	.st0{fill:#FFFFFF;}
	.st1{fill:#FFDD00;}
	.st2{fill:#D50057;}
	.st3{fill:#FFAB4D;}
	.st4{fill:#38D430;}
	.st5{fill:#0097CE;}
	.st6{fill:#24272A;}
	.st7{clip-path:url(#SVGID_00000168822585037851729130000001766597034751489157_);fill:#FFFFFF;}
	.st8{clip-path:url(#SVGID_00000155121647118746167270000008598359907981513101_);fill:#FFFFFF;}
	.st9{clip-path:url(#SVGID_00000133508709291304035820000011647290357132463517_);fill:#FFFFFF;}
	.st10{clip-path:url(#SVGID_00000031895236882035754400000004052913409036696222_);fill:#FFFFFF;}
</style>
<polygon class="st0" points="141.9,15.1 97.9,38.6 132.7,83.8 125,129.4 113.5,118.5 99.1,158.3 80.3,119.5 59.1,135.1 3.3,120.3 
	58.7,71.9 59.1,65 73.5,2.3 "/>
<polygon class="st1" points="66.8,90.6 78.7,119 63.8,131.5 "/>
<polygon class="st2" points="3.7,120.8 59.7,134.8 18.4,107 "/>
<polygon class="st3" points="73.5,2.3 58.7,66.2 84.2,19.5 "/>
<polygon class="st4" points="72.7,56.3 96.1,36.8 119.2,78.3 "/>
<polygon class="st5" points="99.2,159.4 125,84.7 91,142.3 "/>
<path class="st6" d="M99.3,161.7c-0.9,0-1.6-0.5-2.1-1.3l-17.9-37.5l-18.1,14.4c-0.6,0.4-1.3,0.6-1.9,0.4L1.7,123.3
	c-1.2-0.3-1.9-1.6-1.6-2.7c0.1-0.4,0.4-0.9,0.7-1.1L56.6,71l-0.1-4.5c0-0.7,0.3-1.4,0.9-1.9L95.1,35c1-0.8,2.4-0.6,3.2,0.4
	c0.1,0.1,0.1,0.1,0.1,0.3l28.9,49.2c0.4,0.6,0.4,1.3,0.1,1.9l-26.2,73.5C101.1,161.1,100.3,161.7,99.3,161.7L99.3,161.7 M80.1,117.1
	c0.1,0,0.4,0,0.5,0.1c0.6,0.1,1.2,0.6,1.6,1.2L99,153.6l24-67.3L95.9,40.2L61,67.3l0.1,4.4c0,0.7-0.3,1.4-0.8,1.8L7,119.9L59.2,133
	l19.4-15.4C79.1,117.3,79.6,117.1,80.1,117.1"/>
<path class="st6" d="M80.1,121.7c-0.9,0-1.7-0.5-2.1-1.4L56.8,72.7c-0.4-1.2,0.2-2.5,1.4-2.9c1.1-0.4,2.2,0.1,2.7,1.1l21.2,47.5
	c0.5,1.1,0,2.5-1.1,3C80.7,121.6,80.4,121.6,80.1,121.7"/>
<path class="st6" d="M125.4,131.3c-0.6,0-1.1-0.2-1.6-0.6l-11.4-11.2c-0.9-0.9-0.9-2.3,0-3.2c0.9-0.9,2.3-0.9,3.2,0l8.2,8.1
	l6.2-40.2l-35.3-46c-0.4-0.6-0.6-1.2-0.4-1.9c0.1-0.6,0.6-1.2,1.2-1.5L134.7,16L75.2,4.9L60.9,66.8c-0.3,1.2-1.5,2-2.7,1.7
	s-2-1.5-1.7-2.7l14.9-64c0.3-1.2,1.4-1.9,2.6-1.7l68.4,12.8c1.2,0.2,2.1,1.4,1.9,2.6c-0.1,0.7-0.6,1.4-1.3,1.6l-43,20.6l34.3,44.4
	c0.4,0.5,0.6,1.1,0.4,1.7l-7.1,45.6c-0.1,0.9-0.7,1.6-1.5,1.8C125.9,131.3,125.7,131.3,125.4,131.3"/>
<path class="st6" d="M124.3,89.5c-0.2,0-0.4-0.1-0.5-0.3c-0.1-0.3-0.1-0.6,0.1-0.8l0,0l8.1-5.5c0.3-0.1,0.6-0.1,0.8,0.1l0,0
	c0.1,0.3,0.1,0.6-0.1,0.8l-8.1,5.4C124.6,89.5,124.5,89.5,124.3,89.5"/>
<polygon class="st6" points="102,43.9 141.9,15.1 96.5,36.8 "/>
<g>
	<g>
		<g>
			<defs>
				<rect id="SVGID_1_" x="144.2" y="34.2" width="299.5" height="97.1"/>
			</defs>
			<clipPath id="SVGID_00000013176603533322822340000013758066068699899060_">
				<use xlink:href="#SVGID_1_"  style="overflow:visible;"/>
			</clipPath>
			<polygon style="clip-path:url(#SVGID_00000013176603533322822340000013758066068699899060_);fill:#FFFFFF;" points="196.8,37.1 
				180.5,37.1 177.4,52.7 193.7,52.7 			"/>
		</g>
	</g>
	<g>
		<g>
			<defs>
				<rect id="SVGID_00000031188882594738893440000011481266096278283949_" x="144.2" y="34.2" width="299.5" height="97.1"/>
			</defs>
			<clipPath id="SVGID_00000134243359776640092950000012013242629081464961_">
				<use xlink:href="#SVGID_00000031188882594738893440000011481266096278283949_"  style="overflow:visible;"/>
			</clipPath>
			<path style="clip-path:url(#SVGID_00000134243359776640092950000012013242629081464961_);fill:#FFFFFF;" d="M269.8,91.7h28.1
				l2.4-12.5c2.7-13.8-3.3-21.7-17.9-21.7c-15.1,0-23.6,8.2-26.2,21.7l-2.8,14.6c-0.3,1.5-0.5,3-0.5,4.4c-3.5,1.5-7,3-7.3,3
				c-2.6,0-4.2-1.2-3.5-4.7L253.3,39h-15.8L233,62.4c-2.2-2.7-6.5-4.8-11.2-4.8c-11.7,0-19.2,8.1-21.8,21.7l-2.5,13.2
				c-0.4,1.9-0.6,3.8-0.6,5.7c-4.1,1.5-8.2,3.1-8.6,3.1c-2.6,0-3.9-1.3-3.4-4.7l7.5-38.2h-24.3L165.6,71h8.5l-4.8,25.4
				c-2.5,13.2,2.3,17.7,12.7,17.7c2.3,0,11-2.7,17.9-5.3c2.6,3.4,6.8,5.3,12.6,5.3c5.8,0.1,11.5-2,15.8-5.8
				c1.4,3.7,4.5,5.8,10.4,5.8c2.9,0,12.3-3.3,17.4-5.6c3,3.6,8.4,5.6,16,5.6c7.7,0,15.1-1.5,21.3-5.2L291,97.7
				c-5.7,2.4-10.7,3.4-15.6,3.4c-5.7,0-7-2.6-6.4-5.5L269.8,91.7z M272.4,78.2c0.9-4.9,3.5-7.9,8.2-7.9c4.8,0,5.8,3.1,5.1,7.9
				l-0.4,1.8h-13.2L272.4,78.2z M226.5,95.6c-2.3,2.2-4.9,3.7-7.7,3.7c-4.7,0-6.2-2.8-5.1-8.7l1.9-9.3c1.2-5.8,3.8-8.7,8.4-8.7
				c2.8,0,4.8,1.4,6.3,3.6L226.5,95.6z"/>
		</g>
	</g>
	<g>
		<g>
			<defs>
				<rect id="SVGID_00000070835337707385607690000001930778302745010084_" x="144.2" y="34.2" width="299.5" height="97.1"/>
			</defs>
			<clipPath id="SVGID_00000183231339512107729070000008538570160803139251_">
				<use xlink:href="#SVGID_00000070835337707385607690000001930778302745010084_"  style="overflow:visible;"/>
			</clipPath>
			<path style="clip-path:url(#SVGID_00000183231339512107729070000008538570160803139251_);fill:#FFFFFF;" d="M339.2,57.5
				c-6.1,0-11.3,2.3-15.6,5.7l-0.4-4.8h-13l-10.7,55.1h15.9l7.3-37.5c2.4-1.7,5.5-3.3,8.4-3.3c3.9,0,5.7,2.1,4.5,7.9l-6.4,32.9H345
				l7-36.2C354.4,66,351.1,57.5,339.2,57.5"/>
		</g>
	</g>
	<g>
		<g>
			<defs>
				<rect id="SVGID_00000011726206480654974500000010971495578345070003_" x="144.2" y="34.2" width="299.5" height="97.1"/>
			</defs>
			<clipPath id="SVGID_00000136406852939819443480000014490901781194349708_">
				<use xlink:href="#SVGID_00000011726206480654974500000010971495578345070003_"  style="overflow:visible;"/>
			</clipPath>
			<path style="clip-path:url(#SVGID_00000136406852939819443480000014490901781194349708_);fill:#FFFFFF;" d="M424,57.5
				c-2.6,0-5.2,0.3-7.7,0.8h-32.7l2.3-11.7l-15.7,1.6l-2,10.1L359,59l-2.4,12h8.6l-4.6,24c-2.2,11.2,0.7,19.1,14.4,19.1
				c5.1,0,10.1-1.4,14.5-3.9l-1.4-11.3c-2.4,0.8-5,1.2-7.5,1.3c-3,0-4.8-1.5-4.2-4.2l4.8-25.1h19.2c-1.3,2.7-2.2,5.7-2.7,8.6
				l-2.7,13c-2.7,13.4,3.9,21.7,19.2,21.7c16,0,23.7-8.3,26.3-21.7l2.6-12.9C445.8,66,439.4,57.5,424,57.5 M427.2,80l-2.3,11.8
				c-1.2,5.8-3.6,8.6-8.6,8.6c-4.8,0-6.3-2.8-5.2-8.6l2.3-11.8c1.2-6,3.8-8.7,8.6-8.7C426.7,71.3,428.4,74,427.2,80"/>
		</g>
	</g>
</g>
</svg>
