<svg id="Grupo_14139" data-name="Grupo 14139" xmlns="http://www.w3.org/2000/svg" width="35.153" height="35.153" viewBox="0 0 35.153 35.153">
  <g id="Grupo_14142" data-name="Grupo 14142">
    <path id="Trazado_9382" data-name="Trazado 9382" d="M50.673,34.571a16.127,16.127,0,1,1-16.1-16.153,16.127,16.127,0,0,1,16.1,16.153" transform="translate(-16.97 -16.969)" fill="#efe4d6"/>
    <path id="Trazado_9383" data-name="Trazado 9383" d="M17.577,35.153A17.577,17.577,0,1,1,35.153,17.577,17.6,17.6,0,0,1,17.577,35.153m0-34.585A17.008,17.008,0,1,0,34.585,17.577,17.027,17.027,0,0,0,17.577.569" fill="#796b69"/>
    <path id="Trazado_9384" data-name="Trazado 9384" d="M262.868,164.392a.884.884,0,1,1-.884.884.884.884,0,0,1,.884-.884" transform="translate(-241.36 -151.45)" fill="#e9c49c" stroke="#707070" stroke-width="0.3"/>
    <path id="Trazado_9386" data-name="Trazado 9386" d="M179.012,177.516a3.782,3.782,0,1,0,3.782,3.782,3.782,3.782,0,0,0-3.782-3.782m0,6.237a2.455,2.455,0,1,1,2.455-2.455,2.455,2.455,0,0,1-2.455,2.455" transform="translate(-161.435 -163.541)" fill="#e9c49c" stroke="#707070" stroke-width="0.3"/>
    <path id="Trazado_9388" data-name="Trazado 9388" d="M137.083,133.331c1.966,0,2.2.007,2.976.043a4.077,4.077,0,0,1,1.368.254,2.44,2.44,0,0,1,1.4,1.4,4.076,4.076,0,0,1,.254,1.368c.035.777.043,1.01.043,2.976s-.007,2.2-.043,2.976a4.076,4.076,0,0,1-.254,1.368,2.44,2.44,0,0,1-1.4,1.4,4.077,4.077,0,0,1-1.368.254c-.777.035-1.009.043-2.976.043s-2.2-.007-2.976-.043a4.077,4.077,0,0,1-1.368-.254,2.44,2.44,0,0,1-1.4-1.4,4.076,4.076,0,0,1-.254-1.368c-.035-.777-.043-1.01-.043-2.976s.007-2.2.043-2.976a4.076,4.076,0,0,1,.254-1.368,2.439,2.439,0,0,1,1.4-1.4,4.075,4.075,0,0,1,1.368-.254c.777-.035,1.01-.043,2.976-.043m0-1.327c-2,0-2.251.009-3.037.044a5.4,5.4,0,0,0-1.787.342,3.766,3.766,0,0,0-2.154,2.154,5.4,5.4,0,0,0-.342,1.788c-.036.785-.044,1.036-.044,3.036s.008,2.251.044,3.037a5.406,5.406,0,0,0,.342,1.788,3.766,3.766,0,0,0,2.154,2.154,5.4,5.4,0,0,0,1.788.342c.785.036,1.036.044,3.036.044s2.251-.008,3.037-.044a5.406,5.406,0,0,0,1.788-.342,3.766,3.766,0,0,0,2.154-2.154,5.406,5.406,0,0,0,.342-1.788c.036-.785.044-1.036.044-3.036s-.008-2.251-.044-3.037a5.4,5.4,0,0,0-.342-1.787,3.766,3.766,0,0,0-2.154-2.154,5.405,5.405,0,0,0-1.788-.342c-.785-.036-1.036-.045-3.036-.045" transform="translate(-119.506 -121.612)" fill="#e9c49c" stroke="#707070" stroke-width="0.3"/>
  </g>
</svg>
