<svg xmlns="http://www.w3.org/2000/svg" width="64" height="64" viewBox="0 0 64 64">
  <g id="Grupo_12649" data-name="Grupo 12649" transform="translate(-400.965 -367.253)">
    <g id="Grupo_12646" data-name="Grupo 12646">
      <rect id="Rectángulo_731" data-name="Rectángulo 731" width="42.992" height="7.817" transform="translate(411.468 375.804)" fill="#ffb936"/>
      <path id="Trazado_7476" data-name="Trazado 7476" d="M417.331,404.466l8.941,6.941,6.691-5.206V389.483H417.331Zm6.229-7.858,1.587-3.216,1.587,3.216,3.549.516-2.568,2.5.606,3.535-3.174-1.669-3.175,1.669.606-3.535-2.568-2.5Z" fill="#ffb936"/>
    </g>
    <g id="Grupo_12647" data-name="Grupo 12647">
      <path id="Trazado_7477" data-name="Trazado 7477" d="M411.468,399.905v-15.2l-9.771,7.6Z" fill="#358dff"/>
      <path id="Trazado_7478" data-name="Trazado 7478" d="M422.914,375.8h20.1l-10.051-7.817Z" fill="#358dff"/>
      <path id="Trazado_7479" data-name="Trazado 7479" d="M454.46,384.705v15.2l9.771-7.6Z" fill="#358dff"/>
    </g>
    <g id="Grupo_12648" data-name="Grupo 12648">
      <path id="Trazado_7480" data-name="Trazado 7480" d="M438.826,390.217H448.6a.733.733,0,1,0,0-1.466h-9.771a.733.733,0,0,0,0,1.466Z" fill="#1a171b"/>
      <path id="Trazado_7481" data-name="Trazado 7481" d="M448.6,393.637h-1.955a.733.733,0,1,0,0,1.466H448.6a.733.733,0,1,0,0-1.466Z" fill="#1a171b"/>
      <path id="Trazado_7482" data-name="Trazado 7482" d="M438.826,395.1h3.907a.733.733,0,1,0,0-1.466h-3.907a.733.733,0,0,0,0,1.466Z" fill="#1a171b"/>
      <path id="Trazado_7483" data-name="Trazado 7483" d="M438.826,399.988H448.6a.732.732,0,1,0,0-1.465h-9.771a.732.732,0,0,0,0,1.465Z" fill="#1a171b"/>
      <path id="Trazado_7484" data-name="Trazado 7484" d="M438.826,404.874h3.907a.733.733,0,1,0,0-1.466h-3.907a.733.733,0,0,0,0,1.466Z" fill="#1a171b"/>
      <path id="Trazado_7485" data-name="Trazado 7485" d="M439.28,379.2a.733.733,0,1,0,1.036,1.036.714.714,0,0,0,.225-.517.737.737,0,0,0-.225-.527A.757.757,0,0,0,439.28,379.2Z" fill="#1a171b"/>
      <path id="Trazado_7486" data-name="Trazado 7486" d="M449.569,378.983a.732.732,0,1,0,.733.733A.732.732,0,0,0,449.569,378.983Z" fill="#1a171b"/>
      <path id="Trazado_7487" data-name="Trazado 7487" d="M444.693,378.983a.732.732,0,0,0,0,1.465.732.732,0,1,0,0-1.465Z" fill="#1a171b"/>
      <path id="Trazado_7488" data-name="Trazado 7488" d="M464.682,391.728l-9.489-7.381V375.8a.733.733,0,0,0-.732-.734H443.269l-9.853-7.663a.733.733,0,0,0-.9,0l-9.853,7.663H411.469a.734.734,0,0,0-.734.734v8.544l-9.487,7.379a.724.724,0,0,0-.283.578v38.216a.732.732,0,0,0,.732.732h62.534a.733.733,0,0,0,.734-.732V392.306A.73.73,0,0,0,464.682,391.728Zm-9.489-5.524,7.845,6.1-7.845,6.1Zm-22.227-17.289,7.915,6.156H425.05ZM412.2,376.537h41.527v6.352H412.2Zm0,7.817h41.527v15.192l-14.064,10.937-5.969-4.642V389.483a.732.732,0,0,0-.732-.732H417.331a.733.733,0,0,0-.733.732v13.484l-4.4-3.42Zm20.028,21.492-5.965,4.639-8.2-6.378v-13.89h14.165ZM410.735,386.2v12.2l-7.844-6.1Zm-8.3,7.6,22.64,17.61-22.64,17.608Zm1.4,35.983,29.133-22.657,29.13,22.657Zm59.666-.765-22.642-17.611L463.5,393.8Z" fill="#1a171b"/>
      <path id="Trazado_7489" data-name="Trazado 7489" d="M424.163,425.635a.733.733,0,0,0,.733.732h16.862a.732.732,0,0,0,0-1.465H424.9A.733.733,0,0,0,424.163,425.635Z" fill="#1a171b"/>
      <path id="Trazado_7490" data-name="Trazado 7490" d="M420.01,424.9h-4.633a.732.732,0,1,0,0,1.465h4.633a.732.732,0,0,0,0-1.465Z" fill="#1a171b"/>
    </g>
  </g>
</svg>
