<svg xmlns="http://www.w3.org/2000/svg" width="63.999" height="64" viewBox="0 0 63.999 64">
  <g id="Grupo_12650" data-name="Grupo 12650" transform="translate(-157.76 -368.225)">
    <g id="Grupo_12650-2" data-name="Grupo 12650">
      <path id="Trazado_7491" data-name="Trazado 7491" d="M159.011,390.772a.733.733,0,0,0-1.251.519v17.867a.733.733,0,0,0,1.251.518l8.933-8.933a.732.732,0,0,0,0-1.036Z" fill="#ffb936"/>
      <path id="Trazado_7492" data-name="Trazado 7492" d="M212.093,400.225l8.934,8.933V391.291Z" fill="#ffb936"/>
    </g>
    <g id="Grupo_12651" data-name="Grupo 12651">
      <path id="Trazado_7493" data-name="Trazado 7493" d="M190.277,422.039a.756.756,0,0,0-1.036,0l-8.932,8.935a.732.732,0,0,0,.517,1.251h17.867a.733.733,0,0,0,.518-1.251Z" fill="#358dff"/>
      <path id="Trazado_7494" data-name="Trazado 7494" d="M189.76,400.224l9.158-9.158a12.951,12.951,0,1,0-18.316,0Zm0-24.178a5.863,5.863,0,1,1-5.863,5.862A5.862,5.862,0,0,1,189.76,376.046Z" fill="#358dff"/>
    </g>
    <g id="Grupo_12652" data-name="Grupo 12652">
      <path id="Trazado_7495" data-name="Trazado 7495" d="M199.152,409.617a.731.731,0,0,0,0,1.036l.691.691a.733.733,0,0,0,1.036-1.036l-.691-.691A.731.731,0,0,0,199.152,409.617Z" fill="#1a171b"/>
      <path id="Trazado_7496" data-name="Trazado 7496" d="M208.014,417.442a.733.733,0,1,0-1.037,1.036L208.4,419.9a.733.733,0,0,0,1.037-1.036Z" fill="#1a171b"/>
      <path id="Trazado_7497" data-name="Trazado 7497" d="M202.7,413.161a.734.734,0,0,0,0,1.037l1.427,1.426a.733.733,0,0,0,1.037-1.036l-1.428-1.427A.733.733,0,0,0,202.7,413.161Z" fill="#1a171b"/>
      <path id="Trazado_7498" data-name="Trazado 7498" d="M179.331,409.617l-.69.691a.732.732,0,1,0,1.035,1.036l.691-.691a.733.733,0,0,0-1.036-1.036Z" fill="#1a171b"/>
      <path id="Trazado_7499" data-name="Trazado 7499" d="M172.542,417.442a.731.731,0,0,0-1.036,0l-1.426,1.426a.733.733,0,0,0,.518,1.251.723.723,0,0,0,.517-.215l1.427-1.426A.733.733,0,0,0,172.542,417.442Z" fill="#1a171b"/>
      <path id="Trazado_7500" data-name="Trazado 7500" d="M174.877,415.839a.727.727,0,0,0,.518-.215l1.427-1.426a.733.733,0,0,0-1.035-1.037l-1.428,1.427a.733.733,0,0,0,.518,1.251Z" fill="#1a171b"/>
      <path id="Trazado_7501" data-name="Trazado 7501" d="M167.227,421.722l-1.428,1.427a.733.733,0,0,0,1.037,1.036l1.426-1.427a.732.732,0,1,0-1.035-1.036Z" fill="#1a171b"/>
      <path id="Trazado_7502" data-name="Trazado 7502" d="M162.945,426l-1.426,1.427a.733.733,0,1,0,1.036,1.036l1.427-1.427A.733.733,0,0,0,162.945,426Z" fill="#1a171b"/>
      <path id="Trazado_7503" data-name="Trazado 7503" d="M158.666,430.281l-.691.693a.733.733,0,1,0,1.036,1.036l.691-.693a.733.733,0,0,0-1.036-1.036Z" fill="#1a171b"/>
      <path id="Trazado_7504" data-name="Trazado 7504" d="M216.574,426a.733.733,0,0,0-1.037,1.036l1.428,1.427A.732.732,0,1,0,218,427.429Z" fill="#1a171b"/>
      <path id="Trazado_7505" data-name="Trazado 7505" d="M212.293,421.722a.732.732,0,1,0-1.035,1.036l1.426,1.427a.733.733,0,0,0,1.037-1.037Z" fill="#1a171b"/>
      <path id="Trazado_7506" data-name="Trazado 7506" d="M220.853,430.281a.733.733,0,0,0-1.037,1.036l.692.693a.733.733,0,0,0,1.037-1.036Z" fill="#1a171b"/>
      <path id="Trazado_7507" data-name="Trazado 7507" d="M158.666,370.167a.733.733,0,0,0,1.036-1.036l-.691-.691a.733.733,0,0,0-1.036,1.037Z" fill="#1a171b"/>
      <path id="Trazado_7508" data-name="Trazado 7508" d="M167.227,378.727a.733.733,0,0,0,1.036-1.037l-1.427-1.425A.733.733,0,0,0,165.8,377.3Z" fill="#1a171b"/>
      <path id="Trazado_7509" data-name="Trazado 7509" d="M171.506,383.008a.733.733,0,0,0,1.037-1.037l-1.427-1.426a.733.733,0,1,0-1.036,1.036Z" fill="#1a171b"/>
      <path id="Trazado_7510" data-name="Trazado 7510" d="M162.945,374.446a.734.734,0,0,0,.52.215.724.724,0,0,0,.517-.215.731.731,0,0,0,0-1.036l-1.426-1.427a.733.733,0,1,0-1.037,1.037Z" fill="#1a171b"/>
      <path id="Trazado_7511" data-name="Trazado 7511" d="M220.336,370.382a.728.728,0,0,0,.517-.215l.692-.69a.733.733,0,0,0-1.037-1.037l-.691.691a.733.733,0,0,0,.519,1.251Z" fill="#1a171b"/>
      <path id="Trazado_7512" data-name="Trazado 7512" d="M211.775,378.941a.729.729,0,0,0,.518-.214l1.428-1.426a.733.733,0,0,0-1.037-1.036l-1.427,1.425a.733.733,0,0,0,.518,1.251Z" fill="#1a171b"/>
      <path id="Trazado_7513" data-name="Trazado 7513" d="M216.056,374.661a.728.728,0,0,0,.518-.215L218,373.02a.733.733,0,0,0-1.036-1.037l-1.427,1.427a.733.733,0,0,0,.519,1.251Z" fill="#1a171b"/>
      <path id="Trazado_7514" data-name="Trazado 7514" d="M207.495,383.222a.737.737,0,0,0,.519-.214l1.426-1.427a.733.733,0,1,0-1.037-1.036l-1.426,1.426a.732.732,0,0,0,.518,1.251Z" fill="#1a171b"/>
      <path id="Trazado_7515" data-name="Trazado 7515" d="M221.307,390.613a.739.739,0,0,0-.8.159l-8.933,8.935a.733.733,0,0,0,0,1.036l8.933,8.933a.733.733,0,0,0,1.251-.518V391.291A.735.735,0,0,0,221.307,390.613Zm-1.014,16.776-7.164-7.164,7.164-7.165Z" fill="#1a171b"/>
      <path id="Trazado_7516" data-name="Trazado 7516" d="M194.423,418.74a6.6,6.6,0,0,0-9.327,0l-12.233,12.234a.733.733,0,1,0,1.037,1.036l12.233-12.233a5.128,5.128,0,0,1,7.254,0l12.232,12.233a.733.733,0,1,0,1.037-1.036Z" fill="#1a171b"/>
      <path id="Trazado_7517" data-name="Trazado 7517" d="M157.975,416.084a.731.731,0,0,0,0,1.036.732.732,0,0,0,1.036,0l12.233-12.232a6.6,6.6,0,0,0,0-9.328l-12.233-12.232a.733.733,0,1,0-1.036,1.036L170.207,396.6a5.129,5.129,0,0,1,0,7.255Z" fill="#1a171b"/>
      <path id="Trazado_7518" data-name="Trazado 7518" d="M221.545,383.328a.734.734,0,0,0-1.037,0L208.275,395.56a6.6,6.6,0,0,0,0,9.328l12.233,12.232a.733.733,0,1,0,1.037-1.036l-12.232-12.232a5.129,5.129,0,0,1,0-7.255l12.232-12.233A.735.735,0,0,0,221.545,383.328Z" fill="#1a171b"/>
      <path id="Trazado_7519" data-name="Trazado 7519" d="M189.241,400.742a.732.732,0,0,0,1.036,0l9.158-9.157a13.683,13.683,0,1,0-19.351,0Zm-8.122-27.473a12.218,12.218,0,1,1,17.279,17.28l-8.638,8.639-8.641-8.639a12.221,12.221,0,0,1,0-17.28Z" fill="#1a171b"/>
      <path id="Trazado_7520" data-name="Trazado 7520" d="M189.76,388.5a6.6,6.6,0,1,0-6.6-6.6A6.6,6.6,0,0,0,189.76,388.5Zm0-11.726a5.13,5.13,0,1,1-5.13,5.13A5.136,5.136,0,0,1,189.76,376.778Z" fill="#1a171b"/>
    </g>
  </g>
</svg>
