<svg xmlns="http://www.w3.org/2000/svg" width="57.316" height="57.318" viewBox="0 0 57.316 57.318">
  <g id="Grupo_12645" data-name="Grupo 12645" transform="translate(-401.711 -244.754)">
    <g id="Grupo_12624" data-name="Grupo 12624" transform="translate(404.117 250.663)">
      <path id="Trazado_7434" data-name="Trazado 7434" d="M452.343,275.241a15.732,15.732,0,0,1-20.077-23.787c-.722-.064-1.452-.1-2.19-.1a24.383,24.383,0,0,0-14.412,4.691,55.961,55.961,0,0,0,2.823,6.627c-.991.3-1.726.922-1.241,1.832a60.5,60.5,0,0,0,24.23,24.207c.9.474,1.5-.273,1.791-1.265a56.218,56.218,0,0,0,6.621,2.821,24.354,24.354,0,0,0,4.649-13.05Z" transform="translate(-405.573 -251.352)" fill="#ffb936"/>
      <path id="Trazado_7435" data-name="Trazado 7435" d="M406.308,268.1A24.509,24.509,0,0,0,438.4,300.19,56.208,56.208,0,0,1,406.308,268.1Z" transform="translate(-404.397 -253.101)" fill="#ffb936"/>
    </g>
    <g id="Grupo_12625" data-name="Grupo 12625" transform="translate(411.687 245.412)">
      <path id="Trazado_7436" data-name="Trazado 7436" d="M417.819,248.092a3.488,3.488,0,0,0-3.377-2.6H412.85a55.686,55.686,0,0,0,5.343,16.569,4.982,4.982,0,0,1,1.394-.2,2.342,2.342,0,0,0,2.087-3.393A55.61,55.61,0,0,1,417.819,248.092Z" transform="translate(-412.85 -245.489)" fill="#358dff"/>
      <path id="Trazado_7437" data-name="Trazado 7437" d="M460.443,291.589a55.663,55.663,0,0,1-10.358-3.847,2.346,2.346,0,0,0-3.4,2.083,5.05,5.05,0,0,1-.2,1.394,55.711,55.711,0,0,0,16.562,5.339v-1.588A3.493,3.493,0,0,0,460.443,291.589Z" transform="translate(-416.362 -249.874)" fill="#358dff"/>
    </g>
    <g id="Grupo_12626" data-name="Grupo 12626" transform="translate(401.711 244.754)">
      <path id="Trazado_7438" data-name="Trazado 7438" d="M437.377,306.406a55.284,55.284,0,0,1-14.076-7.835.656.656,0,0,0-.8,1.043,56.569,56.569,0,0,0,14.408,8.019.669.669,0,0,0,.233.043.656.656,0,0,0,.233-1.27Z" transform="translate(-403.855 -250.359)" fill="#1a171b"/>
      <path id="Trazado_7439" data-name="Trazado 7439" d="M416.022,292.025a.657.657,0,1,0-.953.9c.951,1,1.951,1.977,2.966,2.9a.656.656,0,1,0,.884-.971C417.925,293.958,416.951,293,416.022,292.025Z" transform="translate(-403.087 -249.668)" fill="#1a171b"/>
      <path id="Trazado_7440" data-name="Trazado 7440" d="M435.795,263a.656.656,0,0,0-.656-.656h-1.751a.656.656,0,1,0,0,1.313h1.751A.657.657,0,0,0,435.795,263Z" transform="translate(-404.95 -246.591)" fill="#1a171b"/>
      <path id="Trazado_7441" data-name="Trazado 7441" d="M447.312,274.314a.656.656,0,0,0-.656.656v1.749a.656.656,0,1,0,1.312,0V274.97A.656.656,0,0,0,447.312,274.314Z" transform="translate(-406.404 -247.84)" fill="#1a171b"/>
      <path id="Trazado_7442" data-name="Trazado 7442" d="M447.312,251.484a.657.657,0,0,0,.656-.657v-1.75a.656.656,0,0,0-1.312,0v1.75A.657.657,0,0,0,447.312,251.484Z" transform="translate(-406.404 -245.137)" fill="#1a171b"/>
      <path id="Trazado_7443" data-name="Trazado 7443" d="M441.553,272.8a.655.655,0,0,0-.9.239l-.875,1.517a.655.655,0,1,0,1.135.656l.877-1.515A.657.657,0,0,0,441.553,272.8Z" transform="translate(-405.677 -247.673)" fill="#1a171b"/>
      <path id="Trazado_7444" data-name="Trazado 7444" d="M452.968,253.027a.658.658,0,0,0,.9-.24l.874-1.515a.656.656,0,0,0-1.137-.657l-.875,1.516A.658.658,0,0,0,452.968,253.027Z" transform="translate(-407.028 -245.332)" fill="#1a171b"/>
      <path id="Trazado_7445" data-name="Trazado 7445" d="M437.1,256.346l-1.517-.876a.656.656,0,1,0-.656,1.137l1.514.875a.653.653,0,0,0,.328.088.656.656,0,0,0,.33-1.224Z" transform="translate(-405.145 -245.864)" fill="#1a171b"/>
      <path id="Trazado_7446" data-name="Trazado 7446" d="M453.865,273.037a.657.657,0,0,0-1.137.657l.875,1.515a.656.656,0,1,0,1.137-.656Z" transform="translate(-407.028 -247.673)" fill="#1a171b"/>
      <path id="Trazado_7447" data-name="Trazado 7447" d="M440.658,252.787a.656.656,0,0,0,1.137-.656l-.877-1.516a.656.656,0,1,0-1.135.657Z" transform="translate(-405.677 -245.332)" fill="#1a171b"/>
      <path id="Trazado_7448" data-name="Trazado 7448" d="M445.476,244.757a16.407,16.407,0,1,0,8.188,30.609l7.124,6.413a.657.657,0,0,0,1.1-.488V261.164A16.426,16.426,0,0,0,445.476,244.757Zm15.094,35.059-6.388-5.751a.653.653,0,0,0-.439-.168.666.666,0,0,0-.347.1,15.082,15.082,0,1,1,7.174-12.83Z" transform="translate(-404.567 -244.754)" fill="#1a171b"/>
      <path id="Trazado_7449" data-name="Trazado 7449" d="M446.488,255.016a.656.656,0,1,0,0,1.312,5.93,5.93,0,1,1-5.409,3.549l1.109.621-.056-3.926-3.372,2.011,1.173.655a7.211,7.211,0,1,0,6.555-4.221Z" transform="translate(-405.579 -245.826)" fill="#1a171b"/>
      <path id="Trazado_7450" data-name="Trazado 7450" d="M458.625,263a.657.657,0,0,0,.656.656h1.752a.656.656,0,0,0,0-1.313h-1.752A.656.656,0,0,0,458.625,263Z" transform="translate(-407.653 -246.591)" fill="#1a171b"/>
      <path id="Trazado_7451" data-name="Trazado 7451" d="M459.521,269.292,458,268.417a.656.656,0,0,0-.656,1.137l1.516.875a.656.656,0,0,0,.656-1.137Z" transform="translate(-407.486 -247.215)" fill="#1a171b"/>
      <path id="Trazado_7452" data-name="Trazado 7452" d="M457.349,256.346a.656.656,0,0,0,.329,1.224.644.644,0,0,0,.327-.088l1.517-.875a.657.657,0,0,0-.656-1.137Z" transform="translate(-407.486 -245.864)" fill="#1a171b"/>
      <path id="Trazado_7453" data-name="Trazado 7453" d="M436.441,268.417l-1.514.875a.656.656,0,1,0,.656,1.137l1.517-.875a.657.657,0,0,0-.658-1.137Z" transform="translate(-405.145 -247.215)" fill="#1a171b"/>
      <path id="Trazado_7454" data-name="Trazado 7454" d="M425.794,254.01a.645.645,0,0,0,.248.049.655.655,0,0,0,.607-.408,19.994,19.994,0,0,1,5.647-7.738.657.657,0,0,0-.845-1,21.341,21.341,0,0,0-6.016,8.247A.655.655,0,0,0,425.794,254.01Z" transform="translate(-404.183 -244.754)" fill="#1a171b"/>
      <path id="Trazado_7455" data-name="Trazado 7455" d="M455.935,286.492a55.146,55.146,0,0,1-10.237-3.8,3.03,3.03,0,0,0-2.947.144,2.964,2.964,0,0,0-1.4,2.528,4.433,4.433,0,0,1-.172,1.212c-.169.579-.4.859-.553.922-.031.013-.112.046-.3-.054a59.929,59.929,0,0,1-23.957-23.935c-.11-.209-.072-.3-.057-.334.063-.153.339-.39.905-.562h0a4.319,4.319,0,0,1,1.207-.174,2.963,2.963,0,0,0,2.531-1.4,3.015,3.015,0,0,0,.145-2.938,55.079,55.079,0,0,1-3.81-10.249,4.148,4.148,0,0,0-4.012-3.092h-7.409a4.2,4.2,0,0,0-3.049,1.32,4.049,4.049,0,0,0-1.1,3.053,56.837,56.837,0,0,0,52.924,52.933c.089.006.18.01.269.01a4.053,4.053,0,0,0,2.79-1.111,4.206,4.206,0,0,0,1.325-3.057v-7.4A4.152,4.152,0,0,0,455.935,286.492ZM413.279,246.07a2.835,2.835,0,0,1,2.743,2.112,56.49,56.49,0,0,0,3.9,10.494,1.7,1.7,0,0,1-.079,1.666,1.636,1.636,0,0,1-1.417.783,5.7,5.7,0,0,0-1.041.1,55.063,55.063,0,0,1-4.924-15.153ZM457.714,297.9a2.884,2.884,0,0,1-.909,2.1,2.776,2.776,0,0,1-2.077.751,55.524,55.524,0,0,1-51.7-51.708,2.74,2.74,0,0,1,.749-2.071,2.878,2.878,0,0,1,2.09-.905h5.26a56.286,56.286,0,0,0,5,15.569,2.118,2.118,0,0,0-1.027,1.028,1.645,1.645,0,0,0,.11,1.455,61.28,61.28,0,0,0,24.5,24.479,1.616,1.616,0,0,0,1.427.1,2.116,2.116,0,0,0,1.02-1.04,56.419,56.419,0,0,0,15.556,4.99Zm0-6.58a55.059,55.059,0,0,1-15.146-4.921,5.858,5.858,0,0,0,.1-1.042,1.636,1.636,0,0,1,.781-1.414,1.719,1.719,0,0,1,1.677-.078,56.519,56.519,0,0,0,10.481,3.892,2.837,2.837,0,0,1,2.111,2.746Z" transform="translate(-401.711 -244.754)" fill="#1a171b"/>
    </g>
  </g>
</svg>
