<svg id="Grupo_14139" data-name="Grupo 14139" xmlns="http://www.w3.org/2000/svg" xmlns:xlink="http://www.w3.org/1999/xlink" width="35.153" height="35.153" viewBox="0 0 35.153 35.153">
  <defs>
    <clipPath id="clip-path">
      <rect id="Rectángulo_792" data-name="Rectángulo 792" width="35.153" height="35.153" fill="none"/>
    </clipPath>
    <clipPath id="clip-path-2">
      <rect id="Rectángulo_793" data-name="Rectángulo 793" width="14.766" height="16.73" transform="translate(-1 -1)" fill="#e9c49c" stroke="#707070" stroke-width="0.4"/>
    </clipPath>
  </defs>
  <g id="Grupo_14138" data-name="Grupo 14138" clip-path="url(#clip-path)">
    <path id="Trazado_9382" data-name="Trazado 9382" d="M50.673,34.571a16.127,16.127,0,1,1-16.1-16.153,16.127,16.127,0,0,1,16.1,16.153" transform="translate(-16.97 -16.969)" fill="#efe4d6"/>
    <path id="Trazado_9383" data-name="Trazado 9383" d="M17.577,35.153A17.577,17.577,0,1,1,35.153,17.577,17.6,17.6,0,0,1,17.577,35.153m0-34.585A17.008,17.008,0,1,0,34.585,17.577,17.027,17.027,0,0,0,17.577.569" fill="#796b69"/>
    <g id="Grupo_14141" data-name="Grupo 14141" transform="translate(11.194 10.392)">
      <g id="Grupo_14140" data-name="Grupo 14140" clip-path="url(#clip-path-2)">
        <path id="Trazado_9390" data-name="Trazado 9390" d="M11.176,3.15a3.355,3.355,0,0,1-.29-.169,4.077,4.077,0,0,1-.745-.633A3.513,3.513,0,0,1,9.3.617h0A2.133,2.133,0,0,1,9.272,0H6.742V9.782c0,.131,0,.261-.006.389,0,.016,0,.031,0,.048a.1.1,0,0,1,0,.022v.006a2.148,2.148,0,0,1-1.081,1.7,2.111,2.111,0,0,1-1.047.276,2.148,2.148,0,0,1,0-4.3,2.114,2.114,0,0,1,.657.1l0-2.576A4.7,4.7,0,0,0,1.645,6.519,4.965,4.965,0,0,0,.561,7.855,4.629,4.629,0,0,0,0,9.979a5.014,5.014,0,0,0,.272,1.679v.006a4.944,4.944,0,0,0,.687,1.253,5.141,5.141,0,0,0,1.1,1.034v-.006l.006.006a4.734,4.734,0,0,0,2.582.778,4.572,4.572,0,0,0,1.917-.424,4.81,4.81,0,0,0,1.556-1.17,4.862,4.862,0,0,0,.848-1.409,5.279,5.279,0,0,0,.305-1.612V4.925c.031.018.439.289.439.289a5.851,5.851,0,0,0,1.508.623,8.682,8.682,0,0,0,1.547.212V3.537a3.28,3.28,0,0,1-1.59-.387" transform="translate(0)" fill="#e9c49c" stroke="#707070" stroke-width="0.4"/>
      </g>
    </g>
  </g>
</svg>
