<svg xmlns="http://www.w3.org/2000/svg" width="35.153" height="35.153" viewBox="0 0 35.153 35.153">
  <g id="Grupo_14137" data-name="Grupo 14137" transform="translate(-1301 -33.423)">
    <path id="Trazado_9341" data-name="Trazado 9341" d="M50.672,34.571a16.127,16.127,0,1,1-16.1-16.153,16.127,16.127,0,0,1,16.1,16.153" transform="translate(1284.031 16.455)" fill="#efe4d6"/>
    <path id="Trazado_9342" data-name="Trazado 9342" d="M17.577,35.154A17.577,17.577,0,1,1,35.153,17.578,17.6,17.6,0,0,1,17.577,35.154m0-34.585A17.008,17.008,0,1,0,34.585,17.578,17.027,17.027,0,0,0,17.577.57" transform="translate(1301 33.422)" fill="#796b69"/>
    <path id="Trazado_9343" data-name="Trazado 9343" d="M131.582,153.151a3.977,3.977,0,0,0-3.977-3.977H117.291a3.977,3.977,0,0,0-3.977,3.977v4.834a3.977,3.977,0,0,0,3.977,3.977H127.6a3.977,3.977,0,0,0,3.977-3.977Zm-6.508,2.661-4.113,2.256c-.179.1-.34-.033-.34-.236V153.2c0-.206.166-.335.345-.233l4.142,2.375a.27.27,0,0,1-.033.469" transform="translate(1196.606 -104.007)" fill="#e9c49c"/>
    <path id="Trazado_9344" data-name="Trazado 9344" d="M125.11,159.68H114.8a4.2,4.2,0,0,1-4.19-4.19v-4.834a4.2,4.2,0,0,1,4.19-4.19H125.11a4.2,4.2,0,0,1,4.19,4.19v4.834a4.2,4.2,0,0,1-4.19,4.19M114.8,146.892a3.768,3.768,0,0,0-3.763,3.763v4.834a3.768,3.768,0,0,0,3.763,3.764H125.11a3.768,3.768,0,0,0,3.764-3.764v-4.834a3.768,3.768,0,0,0-3.764-3.763Zm3.549,8.926a.406.406,0,0,1-.21-.058.482.482,0,0,1-.223-.424v-4.631a.48.48,0,0,1,.227-.426.428.428,0,0,1,.437.008l4.142,2.375a.451.451,0,0,1,.23.4.507.507,0,0,1-.267.439l-4.113,2.256a.47.47,0,0,1-.223.059m.014-5.163c-.011,0-.02.018-.02.05v4.631a.087.087,0,0,0,.016.058l4.122-2.265h0a.083.083,0,0,0,.044-.069.026.026,0,0,0-.015-.028l-4.142-2.375-.006,0" transform="translate(1199.101 -101.512)" fill="#796b69"/>
  </g>
</svg>
